<svg id="visual" viewBox="0 0 960 540" width="960" height="540" xmlns="http://www.w3.org/2000/svg" xmlns:xlink="http://www.w3.org/1999/xlink" version="1.1"><rect width="960" height="540" fill="#FFFFFF"></rect><g><g transform="translate(405 55)"><path d="M128.5 -153.7C161.2 -125.8 178.5 -80.2 184.9 -34.1C191.3 12 186.7 58.6 166.9 99.6C147 140.6 112 176.1 69.6 191.8C27.2 207.4 -22.6 203.2 -66.1 185.6C-109.6 168.1 -146.7 137.1 -171.7 97.4C-196.7 57.7 -209.5 9.2 -202.5 -36.6C-195.4 -82.4 -168.5 -125.5 -131.4 -152.7C-94.4 -179.9 -47.2 -191.2 0.4 -191.6C47.9 -192.1 95.9 -181.7 128.5 -153.7Z" fill="none" stroke="#F7760E" stroke-width="10"></path></g><g transform="translate(700 427)"><path d="M123.8 -145.7C158.1 -118.7 181.9 -77.5 187.7 -34.6C193.4 8.3 181.1 52.9 157.6 88.6C134.1 124.4 99.5 151.4 59.8 166.9C20.1 182.4 -24.6 186.5 -66 174.5C-107.4 162.4 -145.4 134.1 -165.3 96.8C-185.3 59.5 -187.2 13.1 -179.2 -31.5C-171.2 -76 -153.2 -118.6 -121.7 -146C-90.2 -173.4 -45.1 -185.5 -0.2 -185.3C44.7 -185.1 89.5 -172.6 123.8 -145.7Z" stroke="#F7760E" fill="none" stroke-width="10"></path></g><g transform="translate(199 525)"><path d="M64.5 -75.9C83 -61.5 96.8 -40.5 101 -17.6C105.2 5.2 99.8 29.9 87.5 49.9C75.2 70 56 85.5 33.9 94C11.7 102.5 -13.4 104 -35.9 96.6C-58.4 89.3 -78.3 73 -89.7 52.3C-101.1 31.5 -103.9 6.4 -98.4 -16.1C-92.9 -38.5 -79.1 -58.2 -61.3 -72.8C-43.5 -87.3 -21.8 -96.9 0.6 -97.6C23.1 -98.4 46.1 -90.4 64.5 -75.9Z" stroke="#F7760E" fill="none" stroke-width="10"></path></g><g transform="translate(934 38)"><path d="M109.2 -129.4C138 -105.8 155.7 -68.2 160.4 -30C165.2 8.3 157 47.1 138.7 81.2C120.3 115.3 91.8 144.6 57.1 157.4C22.5 170.2 -18.4 166.4 -55.9 153C-93.4 139.6 -127.6 116.5 -147.2 84.2C-166.9 51.8 -172 10.3 -163.9 -27.7C-155.7 -65.6 -134.3 -100 -104.7 -123.5C-75.2 -147 -37.6 -159.6 1.3 -161.1C40.1 -162.6 80.3 -153 109.2 -129.4Z" stroke="#F7760E" fill="none" stroke-width="10"></path></g></g></svg>